<svg preserveAspectRatio="none" width="100%" height="100%" overflow="visible" style="display: block;" viewBox="0 0 171.68 99.184" fill="none" xmlns="http://www.w3.org/2000/svg">
<g id="Vector" filter="url(#filter0_d_54_2054)">
<mask id="path-1-outside-1_54_2054" maskUnits="userSpaceOnUse" x="1" y="1" width="170" height="98" fill="black">
<rect fill="white" x="1" y="1" width="170" height="98"/>
<path d="M13 12H156V87H13V12Z"/>
<path d="M24.1439 23.808C25.3013 23.808 26.2533 23.64 26.9999 23.304C27.7839 22.9307 28.3626 22.3893 28.7359 21.68C29.1466 20.9707 29.3519 20.1307 29.3519 19.16C29.3519 17.7413 28.9226 16.6213 28.0639 15.8C27.2053 14.9787 25.8986 14.568 24.1439 14.568H16.4719V23.808H24.1439ZM39.2639 19.16C39.2639 20.728 38.9653 22.2773 38.3679 23.808C37.8079 25.3387 36.9306 26.72 35.7359 27.952C34.5786 29.184 33.0853 30.1733 31.2559 30.92C29.4266 31.6293 27.2613 31.984 24.7599 31.984H16.4719V45.592H6.72794V6.392H24.7599C28.0079 6.392 30.6959 6.98933 32.8239 8.184C34.9893 9.34133 36.5946 10.8907 37.6399 12.832C38.7226 14.7733 39.2639 16.8827 39.2639 19.16Z"/>
<path d="M65.4239 45.984C62.6239 45.984 60.0106 45.4987 57.5839 44.528C55.1573 43.5573 53.0106 42.1947 51.1439 40.44C49.3146 38.648 47.8773 36.5387 46.8319 34.112C45.7866 31.648 45.2639 28.9413 45.2639 25.992C45.2639 23.0427 45.7866 20.3547 46.8319 17.928C47.8773 15.464 49.3146 13.3547 51.1439 11.6C53.0106 9.808 55.1573 8.42667 57.5839 7.456C60.0106 6.48533 62.6239 6 65.4239 6C68.2239 6 70.8373 6.48533 73.2639 7.456C75.7279 8.42667 77.8746 9.808 79.7039 11.6C81.5333 13.3547 82.9706 15.464 84.0159 17.928C85.0613 20.3547 85.5839 23.0427 85.5839 25.992C85.5839 28.9413 85.0613 31.648 84.0159 34.112C82.9706 36.5387 81.5146 38.648 79.6479 40.44C77.8186 42.1947 75.6906 43.5573 73.2639 44.528C70.8373 45.4987 68.2239 45.984 65.4239 45.984ZM65.4239 37.64C67.4773 37.64 69.2693 37.136 70.7999 36.128C72.3306 35.12 73.5253 33.7387 74.3839 31.984C75.2426 30.2293 75.6719 28.232 75.6719 25.992C75.6719 23.7147 75.2426 21.7173 74.3839 20C73.5253 18.2453 72.3306 16.864 70.7999 15.856C69.2693 14.848 67.4773 14.344 65.4239 14.344C63.3333 14.344 61.5226 14.848 59.9919 15.856C58.4613 16.864 57.2666 18.2453 56.4079 20C55.5866 21.7173 55.1759 23.7147 55.1759 25.992C55.1759 28.232 55.5866 30.2293 56.4079 31.984C57.2666 33.7387 58.4613 35.12 59.9919 36.128C61.5226 37.136 63.3333 37.64 65.4239 37.64Z"/>
<path d="M114.208 19.16C114.208 17.7413 113.779 16.6213 112.92 15.8C112.061 14.9787 110.755 14.568 109 14.568H101.328V23.808H109C110.157 23.808 111.109 23.64 111.856 23.304C112.64 22.9307 113.219 22.3893 113.592 21.68C114.003 20.9707 114.208 20.1307 114.208 19.16ZM109.616 6.392C112.864 6.392 115.552 6.98933 117.68 8.184C119.845 9.34133 121.451 10.8907 122.496 12.832C123.579 14.7733 124.12 16.8827 124.12 19.16C124.12 20.728 123.821 22.2773 123.224 23.808C122.664 25.3387 121.787 26.72 120.592 27.952C119.435 29.184 117.941 30.1733 116.112 30.92C114.283 31.6293 112.117 31.984 109.616 31.984H101.328V45.592H91.5839V6.392H109.616ZM114.544 28.624L124.848 45.592H114.096L104.352 28.624H114.544Z"/>
<path d="M130.848 6.392H164.952V14.568H152.744V45.592H143V14.568H130.848V6.392Z"/>
<path d="M15.744 53.984V85.008H32.824V93.184H6V53.984H15.744Z"/>
<path d="M61.728 62.16H59.768L48.904 93.184H38.824L53.16 53.984H68.616L82.84 93.184H72.76L61.728 62.16ZM49.296 77.168H72.144V85.344H49.296V77.168Z"/>
<path d="M123 53.984V93.184H113.2L98.584 69.44V93.184H88.84V53.984H98.64L113.256 77.896V53.984H123Z"/>
<path d="M145.016 53.984C149.235 53.984 152.875 54.8053 155.936 56.448C159.035 58.0907 161.424 60.3867 163.104 63.336C164.821 66.2853 165.68 69.7013 165.68 73.584C165.68 77.4293 164.821 80.8267 163.104 83.776C161.424 86.7253 159.035 89.04 155.936 90.72C152.875 92.3627 149.235 93.184 145.016 93.184H129V53.984H145.016ZM144.4 85.008C147.947 85.008 150.728 83.9813 152.744 81.928C154.76 79.8747 155.768 77.0933 155.768 73.584C155.768 70.0373 154.76 67.256 152.744 65.24C150.728 63.1867 147.947 62.16 144.4 62.16H138.744V85.008H144.4Z"/>
</mask>
<path d="M13 12H156V87H13V12Z" fill="white"/>
<path d="M24.1439 23.808C25.3013 23.808 26.2533 23.64 26.9999 23.304C27.7839 22.9307 28.3626 22.3893 28.7359 21.68C29.1466 20.9707 29.3519 20.1307 29.3519 19.16C29.3519 17.7413 28.9226 16.6213 28.0639 15.8C27.2053 14.9787 25.8986 14.568 24.1439 14.568H16.4719V23.808H24.1439ZM39.2639 19.16C39.2639 20.728 38.9653 22.2773 38.3679 23.808C37.8079 25.3387 36.9306 26.72 35.7359 27.952C34.5786 29.184 33.0853 30.1733 31.2559 30.92C29.4266 31.6293 27.2613 31.984 24.7599 31.984H16.4719V45.592H6.72794V6.392H24.7599C28.0079 6.392 30.6959 6.98933 32.8239 8.184C34.9893 9.34133 36.5946 10.8907 37.6399 12.832C38.7226 14.7733 39.2639 16.8827 39.2639 19.16Z" fill="#DE96FF"/>
<path d="M65.4239 45.984C62.6239 45.984 60.0106 45.4987 57.5839 44.528C55.1573 43.5573 53.0106 42.1947 51.1439 40.44C49.3146 38.648 47.8773 36.5387 46.8319 34.112C45.7866 31.648 45.2639 28.9413 45.2639 25.992C45.2639 23.0427 45.7866 20.3547 46.8319 17.928C47.8773 15.464 49.3146 13.3547 51.1439 11.6C53.0106 9.808 55.1573 8.42667 57.5839 7.456C60.0106 6.48533 62.6239 6 65.4239 6C68.2239 6 70.8373 6.48533 73.2639 7.456C75.7279 8.42667 77.8746 9.808 79.7039 11.6C81.5333 13.3547 82.9706 15.464 84.0159 17.928C85.0613 20.3547 85.5839 23.0427 85.5839 25.992C85.5839 28.9413 85.0613 31.648 84.0159 34.112C82.9706 36.5387 81.5146 38.648 79.6479 40.44C77.8186 42.1947 75.6906 43.5573 73.2639 44.528C70.8373 45.4987 68.2239 45.984 65.4239 45.984ZM65.4239 37.64C67.4773 37.64 69.2693 37.136 70.7999 36.128C72.3306 35.12 73.5253 33.7387 74.3839 31.984C75.2426 30.2293 75.6719 28.232 75.6719 25.992C75.6719 23.7147 75.2426 21.7173 74.3839 20C73.5253 18.2453 72.3306 16.864 70.7999 15.856C69.2693 14.848 67.4773 14.344 65.4239 14.344C63.3333 14.344 61.5226 14.848 59.9919 15.856C58.4613 16.864 57.2666 18.2453 56.4079 20C55.5866 21.7173 55.1759 23.7147 55.1759 25.992C55.1759 28.232 55.5866 30.2293 56.4079 31.984C57.2666 33.7387 58.4613 35.12 59.9919 36.128C61.5226 37.136 63.3333 37.64 65.4239 37.64Z" fill="#3573DA"/>
<path d="M114.208 19.16C114.208 17.7413 113.779 16.6213 112.92 15.8C112.061 14.9787 110.755 14.568 109 14.568H101.328V23.808H109C110.157 23.808 111.109 23.64 111.856 23.304C112.64 22.9307 113.219 22.3893 113.592 21.68C114.003 20.9707 114.208 20.1307 114.208 19.16ZM109.616 6.392C112.864 6.392 115.552 6.98933 117.68 8.184C119.845 9.34133 121.451 10.8907 122.496 12.832C123.579 14.7733 124.12 16.8827 124.12 19.16C124.12 20.728 123.821 22.2773 123.224 23.808C122.664 25.3387 121.787 26.72 120.592 27.952C119.435 29.184 117.941 30.1733 116.112 30.92C114.283 31.6293 112.117 31.984 109.616 31.984H101.328V45.592H91.5839V6.392H109.616ZM114.544 28.624L124.848 45.592H114.096L104.352 28.624H114.544Z" fill="#F2A36B"/>
<path d="M130.848 6.392H164.952V14.568H152.744V45.592H143V14.568H130.848V6.392Z" fill="#60BB8E"/>
<path d="M15.744 53.984V85.008H32.824V93.184H6V53.984H15.744Z" fill="#DE96FF"/>
<path d="M15.744 53.984V85.008H32.824V93.184H6V53.984H15.744Z" fill="#F2A36B"/>
<path d="M61.728 62.16H59.768L48.904 93.184H38.824L53.16 53.984H68.616L82.84 93.184H72.76L61.728 62.16ZM49.296 77.168H72.144V85.344H49.296V77.168Z" fill="#3573DA"/>
<path d="M61.728 62.16H59.768L48.904 93.184H38.824L53.16 53.984H68.616L82.84 93.184H72.76L61.728 62.16ZM49.296 77.168H72.144V85.344H49.296V77.168Z" fill="#60BB8E"/>
<path d="M123 53.984V93.184H113.2L98.584 69.44V93.184H88.84V53.984H98.64L113.256 77.896V53.984H123Z" fill="#F2A36B"/>
<path d="M123 53.984V93.184H113.2L98.584 69.44V93.184H88.84V53.984H98.64L113.256 77.896V53.984H123Z" fill="#DE96FF"/>
<path d="M145.016 53.984C149.235 53.984 152.875 54.8053 155.936 56.448C159.035 58.0907 161.424 60.3867 163.104 63.336C164.821 66.2853 165.68 69.7013 165.68 73.584C165.68 77.4293 164.821 80.8267 163.104 83.776C161.424 86.7253 159.035 89.04 155.936 90.72C152.875 92.3627 149.235 93.184 145.016 93.184H129V53.984H145.016ZM144.4 85.008C147.947 85.008 150.728 83.9813 152.744 81.928C154.76 79.8747 155.768 77.0933 155.768 73.584C155.768 70.0373 154.76 67.256 152.744 65.24C150.728 63.1867 147.947 62.16 144.4 62.16H138.744V85.008H144.4Z" fill="var(--fill-0, #60BB8E)"/>
<path d="M145.016 53.984C149.235 53.984 152.875 54.8053 155.936 56.448C159.035 58.0907 161.424 60.3867 163.104 63.336C164.821 66.2853 165.68 69.7013 165.68 73.584C165.68 77.4293 164.821 80.8267 163.104 83.776C161.424 86.7253 159.035 89.04 155.936 90.72C152.875 92.3627 149.235 93.184 145.016 93.184H129V53.984H145.016ZM144.4 85.008C147.947 85.008 150.728 83.9813 152.744 81.928C154.76 79.8747 155.768 77.0933 155.768 73.584C155.768 70.0373 154.76 67.256 152.744 65.24C150.728 63.1867 147.947 62.16 144.4 62.16H138.744V85.008H144.4Z" fill="var(--fill-1, #3573DA)"/>
<path d="M13 12H156V87H13V12Z" stroke="var(--stroke-0, white)" stroke-width="10" stroke-linejoin="round" mask="url(#path-1-outside-1_54_2054)"/>
<path d="M24.1439 23.808C25.3013 23.808 26.2533 23.64 26.9999 23.304C27.7839 22.9307 28.3626 22.3893 28.7359 21.68C29.1466 20.9707 29.3519 20.1307 29.3519 19.16C29.3519 17.7413 28.9226 16.6213 28.0639 15.8C27.2053 14.9787 25.8986 14.568 24.1439 14.568H16.4719V23.808H24.1439ZM39.2639 19.16C39.2639 20.728 38.9653 22.2773 38.3679 23.808C37.8079 25.3387 36.9306 26.72 35.7359 27.952C34.5786 29.184 33.0853 30.1733 31.2559 30.92C29.4266 31.6293 27.2613 31.984 24.7599 31.984H16.4719V45.592H6.72794V6.392H24.7599C28.0079 6.392 30.6959 6.98933 32.8239 8.184C34.9893 9.34133 36.5946 10.8907 37.6399 12.832C38.7226 14.7733 39.2639 16.8827 39.2639 19.16Z" stroke="var(--stroke-0, white)" stroke-width="10" stroke-linejoin="round" mask="url(#path-1-outside-1_54_2054)"/>
<path d="M65.4239 45.984C62.6239 45.984 60.0106 45.4987 57.5839 44.528C55.1573 43.5573 53.0106 42.1947 51.1439 40.44C49.3146 38.648 47.8773 36.5387 46.8319 34.112C45.7866 31.648 45.2639 28.9413 45.2639 25.992C45.2639 23.0427 45.7866 20.3547 46.8319 17.928C47.8773 15.464 49.3146 13.3547 51.1439 11.6C53.0106 9.808 55.1573 8.42667 57.5839 7.456C60.0106 6.48533 62.6239 6 65.4239 6C68.2239 6 70.8373 6.48533 73.2639 7.456C75.7279 8.42667 77.8746 9.808 79.7039 11.6C81.5333 13.3547 82.9706 15.464 84.0159 17.928C85.0613 20.3547 85.5839 23.0427 85.5839 25.992C85.5839 28.9413 85.0613 31.648 84.0159 34.112C82.9706 36.5387 81.5146 38.648 79.6479 40.44C77.8186 42.1947 75.6906 43.5573 73.2639 44.528C70.8373 45.4987 68.2239 45.984 65.4239 45.984ZM65.4239 37.64C67.4773 37.64 69.2693 37.136 70.7999 36.128C72.3306 35.12 73.5253 33.7387 74.3839 31.984C75.2426 30.2293 75.6719 28.232 75.6719 25.992C75.6719 23.7147 75.2426 21.7173 74.3839 20C73.5253 18.2453 72.3306 16.864 70.7999 15.856C69.2693 14.848 67.4773 14.344 65.4239 14.344C63.3333 14.344 61.5226 14.848 59.9919 15.856C58.4613 16.864 57.2666 18.2453 56.4079 20C55.5866 21.7173 55.1759 23.7147 55.1759 25.992C55.1759 28.232 55.5866 30.2293 56.4079 31.984C57.2666 33.7387 58.4613 35.12 59.9919 36.128C61.5226 37.136 63.3333 37.64 65.4239 37.64Z" stroke="var(--stroke-0, white)" stroke-width="10" stroke-linejoin="round" mask="url(#path-1-outside-1_54_2054)"/>
<path d="M114.208 19.16C114.208 17.7413 113.779 16.6213 112.92 15.8C112.061 14.9787 110.755 14.568 109 14.568H101.328V23.808H109C110.157 23.808 111.109 23.64 111.856 23.304C112.64 22.9307 113.219 22.3893 113.592 21.68C114.003 20.9707 114.208 20.1307 114.208 19.16ZM109.616 6.392C112.864 6.392 115.552 6.98933 117.68 8.184C119.845 9.34133 121.451 10.8907 122.496 12.832C123.579 14.7733 124.12 16.8827 124.12 19.16C124.12 20.728 123.821 22.2773 123.224 23.808C122.664 25.3387 121.787 26.72 120.592 27.952C119.435 29.184 117.941 30.1733 116.112 30.92C114.283 31.6293 112.117 31.984 109.616 31.984H101.328V45.592H91.5839V6.392H109.616ZM114.544 28.624L124.848 45.592H114.096L104.352 28.624H114.544Z" stroke="var(--stroke-0, white)" stroke-width="10" stroke-linejoin="round" mask="url(#path-1-outside-1_54_2054)"/>
<path d="M130.848 6.392H164.952V14.568H152.744V45.592H143V14.568H130.848V6.392Z" stroke="var(--stroke-0, white)" stroke-width="10" stroke-linejoin="round" mask="url(#path-1-outside-1_54_2054)"/>
<path d="M15.744 53.984V85.008H32.824V93.184H6V53.984H15.744Z" stroke="var(--stroke-0, white)" stroke-width="10" stroke-linejoin="round" mask="url(#path-1-outside-1_54_2054)"/>
<path d="M61.728 62.16H59.768L48.904 93.184H38.824L53.16 53.984H68.616L82.84 93.184H72.76L61.728 62.16ZM49.296 77.168H72.144V85.344H49.296V77.168Z" stroke="var(--stroke-0, white)" stroke-width="10" stroke-linejoin="round" mask="url(#path-1-outside-1_54_2054)"/>
<path d="M123 53.984V93.184H113.2L98.584 69.44V93.184H88.84V53.984H98.64L113.256 77.896V53.984H123Z" stroke="var(--stroke-0, white)" stroke-width="10" stroke-linejoin="round" mask="url(#path-1-outside-1_54_2054)"/>
<path d="M145.016 53.984C149.235 53.984 152.875 54.8053 155.936 56.448C159.035 58.0907 161.424 60.3867 163.104 63.336C164.821 66.2853 165.68 69.7013 165.68 73.584C165.68 77.4293 164.821 80.8267 163.104 83.776C161.424 86.7253 159.035 89.04 155.936 90.72C152.875 92.3627 149.235 93.184 145.016 93.184H129V53.984H145.016ZM144.4 85.008C147.947 85.008 150.728 83.9813 152.744 81.928C154.76 79.8747 155.768 77.0933 155.768 73.584C155.768 70.0373 154.76 67.256 152.744 65.24C150.728 63.1867 147.947 62.16 144.4 62.16H138.744V85.008H144.4Z" stroke="var(--stroke-0, white)" stroke-width="10" stroke-linejoin="round" mask="url(#path-1-outside-1_54_2054)"/>
</g>
<defs>
<filter id="filter0_d_54_2054" x="0" y="0" width="171.68" height="99.184" filterUnits="userSpaceOnUse" color-interpolation-filters="sRGB">
<feFlood flood-opacity="0" result="BackgroundImageFix"/>
<feColorMatrix in="SourceAlpha" type="matrix" values="0 0 0 0 0 0 0 0 0 0 0 0 0 0 0 0 0 0 127 0" result="hardAlpha"/>
<feOffset/>
<feGaussianBlur stdDeviation="0.5"/>
<feComposite in2="hardAlpha" operator="out"/>
<feColorMatrix type="matrix" values="0 0 0 0 0 0 0 0 0 0 0 0 0 0 0 0 0 0 0.75 0"/>
<feBlend mode="normal" in2="BackgroundImageFix" result="effect1_dropShadow_54_2054"/>
<feBlend mode="normal" in="SourceGraphic" in2="effect1_dropShadow_54_2054" result="shape"/>
</filter>
</defs>
</svg>
