<svg preserveAspectRatio="none" width="100%" height="100%" overflow="visible" style="display: block;" viewBox="0 0 9.78969 10.8154" fill="none" xmlns="http://www.w3.org/2000/svg">
<path id="Vector" d="M3.73035 1.47595C3.7579 1.18612 3.89251 0.916976 4.1079 0.721093C4.32328 0.525211 4.60396 0.416667 4.8951 0.416667C5.18623 0.416667 5.46691 0.525211 5.6823 0.721093C5.89768 0.916976 6.0323 1.18612 6.05985 1.47595C6.07641 1.66318 6.13783 1.84366 6.23891 2.00212C6.34 2.16058 6.47778 2.29236 6.64058 2.38629C6.80338 2.48023 6.98642 2.53355 7.1742 2.54176C7.36198 2.54997 7.54897 2.51282 7.71935 2.43345C7.9839 2.31334 8.28368 2.29596 8.56035 2.3847C8.83701 2.47343 9.07076 2.66193 9.21611 2.91351C9.36145 3.16508 9.40799 3.46174 9.34667 3.74574C9.28535 4.02974 9.12055 4.28076 8.88435 4.44995C8.73054 4.55788 8.60498 4.70126 8.5183 4.86797C8.43162 5.03467 8.38637 5.21981 8.38637 5.4077C8.38637 5.5956 8.43162 5.78073 8.5183 5.94744C8.60498 6.11415 8.73054 6.25753 8.88435 6.36545C9.12055 6.53465 9.28535 6.78567 9.34667 7.06967C9.40799 7.35367 9.36145 7.65032 9.21611 7.9019C9.07076 8.15348 8.83701 8.34198 8.56035 8.43071C8.28368 8.51944 7.9839 8.50206 7.71935 8.38195C7.54897 8.30259 7.36198 8.26543 7.1742 8.27364C6.98642 8.28185 6.80338 8.33518 6.64058 8.42911C6.47778 8.52305 6.34 8.65482 6.23891 8.81328C6.13783 8.97174 6.07641 9.15223 6.05985 9.33945C6.0323 9.62928 5.89768 9.89843 5.6823 10.0943C5.46691 10.2902 5.18623 10.3987 4.8951 10.3987C4.60396 10.3987 4.32328 10.2902 4.1079 10.0943C3.89251 9.89843 3.7579 9.62928 3.73035 9.33945C3.71382 9.15216 3.6524 8.97161 3.55128 8.81309C3.45016 8.65457 3.31233 8.52276 3.14946 8.42881C2.98659 8.33487 2.80348 8.28156 2.61564 8.2734C2.42779 8.26525 2.24075 8.30248 2.07035 8.38195C1.80579 8.50206 1.50601 8.51944 1.22935 8.43071C0.952684 8.34198 0.718934 8.15348 0.573589 7.9019C0.428244 7.65032 0.381704 7.35367 0.443027 7.06967C0.50435 6.78567 0.669148 6.53465 0.905347 6.36545C1.05916 6.25753 1.18471 6.11415 1.27139 5.94744C1.35807 5.78073 1.40332 5.5956 1.40332 5.4077C1.40332 5.21981 1.35807 5.03467 1.27139 4.86797C1.18471 4.70126 1.05916 4.55788 0.905347 4.44995C0.669479 4.28068 0.504972 4.02975 0.443798 3.74594C0.382623 3.46214 0.429151 3.16572 0.574339 2.91431C0.719527 2.6629 0.953003 2.47444 1.22939 2.38557C1.50578 2.29671 1.80534 2.31377 2.06985 2.43345C2.24023 2.51282 2.42722 2.54997 2.615 2.54176C2.80278 2.53355 2.98581 2.48023 3.14862 2.38629C3.31142 2.29236 3.44919 2.16058 3.55028 2.00212C3.65137 1.84366 3.71279 1.66318 3.72935 1.47595" stroke="var(--stroke-0, #F6F8FA)" stroke-width="0.833333" stroke-linecap="round" stroke-linejoin="round"/>
</svg>
