<svg preserveAspectRatio="none" width="100%" height="100%" overflow="visible" style="display: block;" viewBox="0 0 8 8" fill="none" xmlns="http://www.w3.org/2000/svg">
<g id="Pulse" clip-path="url(#clip0_39_2024)">
<path id="Exclude" opacity="0.5" d="M6 -0.000976562C7.10457 -0.000976562 8 0.894454 8 1.99902V5.99902C8 7.10359 7.10457 7.99902 6 7.99902H2C0.895431 7.99902 0 7.10359 0 5.99902V1.99902C0 0.894454 0.895431 -0.000976562 2 -0.000976562H6ZM4 1.99902C2.89543 1.99902 2 2.89445 2 3.99902C2 5.10359 2.89543 5.99902 4 5.99902C5.10457 5.99902 6 5.10359 6 3.99902C6 2.89445 5.10457 1.99902 4 1.99902Z" fill="var(--fill-0, white)"/>
</g>
<defs>
<clipPath id="clip0_39_2024">
<rect width="8" height="8" fill="white"/>
</clipPath>
</defs>
</svg>
